# xmcd
#
# Track frame offsets:
#	150
#	12068
#	26336
#	40991
#	56566
#	67884
#	80322
#	93298
#	105625
#	117692
#	129453
#	141219
#	154028
#	165117
#	177926
#	189848
#
# Disc length: 2690 seconds
#
# Revision: 3
# Processed by: cddbd v1.5.1PL0 Copyright (c) Steve Scherf et al.
# Submitted via: EasyCDDAExtractor 7.0.6.1
#
DISCID=be0a8010
DTITLE=Various Artist -  Ernest Tubb - Roy Acuff  Country Superstars
DYEAR=1900
DGENRE=Country
TTITLE0=Ernest Tubb - Walking The Floor Over You
TTITLE1=Ernest Tubb - Rainbow At Midnight
TTITLE2=Ernest Tubb - Soldier's Last Letter
TTITLE3=Ernest Tubb - It's Been So Long Darling
TTITLE4=Ernest Tubb - Let's Say Goodbye Like We Said Hello
TTITLE5=Ernest Tubb - Filipino Baby
TTITLE6=Ernest Tubb - Have You Ever Been Lonely
TTITLE7=Ernest Tubb - I Wonder Why You Said Goodbye
TTITLE8=Roy Acuff - A Sinners Death
TTITLE9=Roy Acuff - Wabash Cannonball
TTITLE10=Roy Acuff - Waltz Of The Wind
TTITLE11=Roy Acuff - It Won't Be Long
TTITLE12=Roy Acuff - Not A Word From Home
TTITLE13=Roy Acuff - Night Train To Memphis
TTITLE14=Roy Acuff - Just To Ease My Worried Mind
TTITLE15=Roy Acuff - Freight Train Blues
EXTD=
EXTT0=
EXTT1=
EXTT2=
EXTT3=
EXTT4=
EXTT5=
EXTT6=
EXTT7=
EXTT8=
EXTT9=
EXTT10=
EXTT11=
EXTT12=
EXTT13=
EXTT14=
EXTT15=
PLAYORDER=
